PathFileType	4	(X/Y/Z)	/Users/itak/Documents/Research/Walk-IL/dataset/trc/00484_00167.trc
DataRate	CameraRate	NumFrames	NumMarkers	Units	OrigDataRate	OrigDataStartFrame	OrigNumFrames
100.000000	100.000000	4	53	mm	100.000000	378	606
Frame#	Time	RPSI			LPSI			L3			STRN			T10			C7			CLAV			RBAK			LBAK			LSHO			LUPA			LAEL			LAOL			LWTS			LWPS			LFRA			LIFD			LHPS			LHTS			RSHO			RUPA			RAEL			RAOL			RWTS			RWPS			RFRA			RIFD			RHTS			RHPS			RBHD			LFHD			RFHD			LBHD			LHIP			RHIP			RASI			LASI			LKNE			LTHI			LANK			LTIP			LTOE			LMT1			LMT5			LHEE			RKNE			RTHI			RANK			RTIP			RTOE			RMT1			RMT5			RHEE			
		X1	Y1	Z1	X2	Y2	Z2	X3	Y3	Z3	X4	Y4	Z4	X5	Y5	Z5	X6	Y6	Z6	X7	Y7	Z7	X8	Y8	Z8	X9	Y9	Z9	X10	Y10	Z10	X11	Y11	Z11	X12	Y12	Z12	X13	Y13	Z13	X14	Y14	Z14	X15	Y15	Z15	X16	Y16	Z16	X17	Y17	Z17	X18	Y18	Z18	X19	Y19	Z19	X20	Y20	Z20	X21	Y21	Z21	X22	Y22	Z22	X23	Y23	Z23	X24	Y24	Z24	X25	Y25	Z25	X26	Y26	Z26	X27	Y27	Z27	X28	Y28	Z28	X29	Y29	Z29	X30	Y30	Z30	X31	Y31	Z31	X32	Y32	Z32	X33	Y33	Z33	X34	Y34	Z34	X35	Y35	Z35	X36	Y36	Z36	X37	Y37	Z37	X38	Y38	Z38	X39	Y39	Z39	X40	Y40	Z40	X41	Y41	Z41	X42	Y42	Z42	X43	Y43	Z43	X44	Y44	Z44	X45	Y45	Z45	X46	Y46	Z46	X47	Y47	Z47	X48	Y48	Z48	X49	Y49	Z49	X50	Y50	Z50	X51	Y51	Z51	X52	Y52	Z52	X53	Y53	Z53	

379	3.78	419.6867980957031	940.5782470703125	-467.6454772949219	417.2589416503906	954.0042114257812	-324.8850708007812	393.4685363769531	1045.152221679688	-418.14404296875	115.5614624023438	1221.25048828125	-473.8197021484375	402.68896484375	1160.93408203125	-426.0810852050781	340.8977966308594	1417.223510742188	-503.5304260253906	151.2488098144531	1333.158569335938	-496.0906372070312	406.9175415039062	1275.674926757812	-557.8650512695312	360.2518920898438	1395.389892578125	-390.7746276855469	245.5015258789062	1430.760864257812	-336.0530090332031	229.3873138427734	1339.466064453125	-213.4627227783203	170.0110473632812	1141.5751953125	-139.3749389648438	259.5364990234375	1102.4091796875	-173.1307678222656	47.94192886352539	964.2701416015625	-195.7634887695312	74.59441375732422	941.6048583984375	-130.1042175292969	122.7334594726562	1063.88525390625	-131.4324951171875	2.222124099731445	809.8991088867188	-181.2346954345703	50.53416442871094	868.23486328125	-129.6599578857422	10.04337787628174	884.9297485351562	-187.8434295654297	295.1099548339844	1350.77490234375	-657.1758422851562	317.8847961425781	1278.17431640625	-717.3536987304688	282.31005859375	993.9346923828125	-755.9682006835938	324.3175964355469	973.078125	-707.0587158203125	147.0852661132812	809.6906127929688	-720.8115844726562	218.0966949462891	782.0221557617188	-764.1617431640625	272.3042907714844	936.3368530273438	-763.6273803710938	117.7363662719727	658.0831909179688	-729.3416748046875	116.6442489624023	718.1588745117188	-733.644775390625	186.3718719482422	700.1587524414062	-764.22216796875	238.1619873046875	1607.5126953125	-633.9344482421875	114.6827011108398	1626.549560546875	-468.7149658203125	104.8231353759766	1614.71923828125	-598.3827514648438	267.0554504394531	1629.46875	-459.8746032714844	287.4369812011719	847.5325317382812	-201.0679321289062	293.9712219238281	833.8965454101562	-603.1600341796875	196.9961700439453	879.35546875	-537.1654663085938	187.7430419921875	880.9229125976562	-282.4222106933594	322.4772644042969	424.3942565917969	-256.2624816894531	280.46923828125	572.6873779296875	-229.8794860839844	494.1294860839844	37.65008544921875	-247.4894104003906	365.0507507324219	272.4014587402344	-246.3939514160156	277.6504516601562	48.66791534423828	-352.0278015136719	356.5355834960938	45.34122467041016	-369.8245544433594	344.5296325683594	52.42370986938477	-259.2355651855469	548.7132568359375	38.76399993896484	-303.8533630371094	139.8445892333984	472.0863647460938	-590.8866577148438	217.1814270019531	717.6504516601562	-617.1207885742188	179.9983978271484	40.004150390625	-623.1927490234375	131.5431213378906	327.6534423828125	-608.3439331054688	-18.55650520324707	67.84440612792969	-539.6087646484375	48.13366317749023	59.23758316040039	-513.3944091796875	47.17084121704102	47.16383361816406	-618.7305908203125	250.9146423339844	27.48458290100098	-590.5825805664062	
380	3.79	414.9296569824219	940.5087890625	-470.736083984375	412.4229431152344	953.662109375	-327.945556640625	388.882568359375	1045.016479492188	-420.95361328125	110.8413848876953	1219.989501953125	-478.5914001464844	397.8547668457031	1160.8115234375	-428.8117065429688	335.8489074707031	1416.53857421875	-507.20458984375	145.9294128417969	1331.96728515625	-501.2015991210938	402.4193725585938	1274.999145507812	-560.843017578125	354.541748046875	1395.285522460938	-394.0429382324219	238.9296875	1430.150512695312	-340.5962219238281	221.2963409423828	1338.869506835938	-218.2850799560547	161.9141540527344	1140.828979492188	-145.0284576416016	251.8313446044922	1101.672973632812	-177.6140441894531	40.50444030761719	963.850341796875	-203.5253295898438	65.90773773193359	941.071044921875	-137.4555206298828	114.4423522949219	1063.20458984375	-137.8881683349609	-5.43046760559082	809.431884765625	-190.2633819580078	41.898193359375	867.647705078125	-137.63720703125	2.536988496780396	884.4465942382812	-196.5391998291016	290.9118041992188	1349.581298828125	-661.1015625	313.7767944335938	1276.728515625	-720.9625854492188	278.9916381835938	993.2275390625	-759.4166870117188	320.8102111816406	973.4715576171875	-709.8126831054688	151.0237731933594	802.4451293945312	-728.3920288085938	224.5093994140625	779.1885986328125	-770.1649780273438	271.3230895996094	935.476806640625	-767.6104736328125	131.1256561279297	649.2931518554688	-739.767822265625	126.3292922973633	709.2047119140625	-743.0859375	197.6602935791016	695.8773193359375	-772.1826782226562	233.5844421386719	1606.210571289062	-638.9725952148438	109.7276077270508	1625.828369140625	-474.1444702148438	100.2277984619141	1613.513061523438	-603.8125	262.0968627929688	1628.85302734375	-464.9711608886719	283.2328186035156	846.73974609375	-204.2600402832031	289.1097106933594	833.9826049804688	-606.3927001953125	192.0842895507812	879.282958984375	-540.5390014648438	183.1926116943359	879.9373779296875	-285.6238708496094	319.9565734863281	423.6488342285156	-257.788818359375	277.4702453613281	571.87939453125	-231.8585815429688	494.0522155761719	37.75219345092773	-247.4647674560547	363.6419677734375	272.0575866699219	-247.0146942138672	277.3067321777344	49.34440612792969	-351.2341613769531	356.0902404785156	45.40510559082031	-369.6158447265625	344.1347961425781	51.55807113647461	-258.8290405273438	548.4351196289062	39.0568733215332	-304.0250244140625	135.8157043457031	471.596435546875	-593.168212890625	212.5415344238281	717.5231323242188	-620.165771484375	180.1001892089844	39.56101226806641	-623.5299072265625	128.9403991699219	326.8467407226562	-610.037109375	-18.30242538452148	68.65221405029297	-539.7333984375	48.40196990966797	60.05540466308594	-513.71875	47.35125732421875	47.20483016967773	-618.8191528320312	251.0963439941406	27.20455551147461	-590.8343505859375	
381	3.8	410.027587890625	940.4404296875	-473.8947143554688	407.5606384277344	953.1530151367188	-331.0628356933594	384.1887817382812	1044.805541992188	-423.8399963378906	106.0580673217773	1218.752563476562	-483.2652587890625	393.0124816894531	1160.628173828125	-431.6476745605469	330.7645874023438	1415.844482421875	-510.9411010742188	140.4673461914062	1330.81591796875	-506.2437438964844	397.7994384765625	1274.315551757812	-563.9608154296875	348.9007873535156	1395.1376953125	-397.4024047851562	232.5119171142578	1429.532592773438	-345.1209411621094	213.4219055175781	1338.265380859375	-223.0928802490234	153.8502044677734	1140.153686523438	-150.6449432373047	244.1661529541016	1100.972045898438	-181.9173583984375	33.18513107299805	963.52587890625	-211.3511657714844	57.14349746704102	940.6925048828125	-144.8311004638672	106.1504287719727	1062.626098632812	-144.3386688232422	-13.08920192718506	809.1370849609375	-199.3868713378906	33.13411712646484	867.2171630859375	-145.6394195556641	-4.913230419158936	884.1012573242188	-205.34765625	286.5144348144531	1348.38037109375	-665.0668334960938	309.4919128417969	1275.2724609375	-724.5982055664062	275.9995422363281	992.5623779296875	-762.89013671875	317.583251953125	973.844970703125	-712.599609375	155.0924987792969	795.7937622070312	-735.71875	230.7406768798828	777.0215454101562	-775.9747924804688	270.5160217285156	934.758056640625	-771.5557250976562	144.883056640625	641.5827026367188	-749.7749633789062	136.2995452880859	701.0977172851562	-752.1723022460938	208.8333435058594	692.583984375	-779.8198852539062	228.9047241210938	1604.9033203125	-643.974609375	104.6522674560547	1625.08154296875	-479.5391845703125	95.5167236328125	1612.263916015625	-609.2093505859375	257.006591796875	1628.248779296875	-470.040283203125	278.978271484375	845.8128662109375	-207.4884796142578	283.8937377929688	834.19140625	-609.6621704101562	186.9448547363281	879.2625122070312	-543.8102416992188	178.6030578613281	878.9683837890625	-288.7359619140625	316.8475036621094	422.7305908203125	-259.4993286132812	274.0328979492188	570.951416015625	-233.9680938720703	493.9266662597656	37.93234634399414	-247.4330444335938	361.8715515136719	271.5986022949219	-247.7562713623047	276.96630859375	49.69438934326172	-350.6541137695312	355.7007446289062	45.46197891235352	-369.4442138671875	343.6108093261719	50.64205169677734	-258.4999084472656	548.1483154296875	39.48960876464844	-304.1696166992188	131.988525390625	471.0309143066406	-595.3956909179688	207.6588592529297	717.3989868164062	-623.17919921875	180.2171936035156	39.12507247924805	-623.8970947265625	126.4884719848633	326.0046691894531	-611.6629028320312	-18.05029296875	69.3582763671875	-539.8637084960938	48.67131042480469	60.78760147094727	-514.0429077148438	47.52524948120117	47.1911735534668	-618.8967895507812	251.2991638183594	26.91102409362793	-591.1187133789062	
382	3.81	405.0207824707031	940.3994140625	-477.0967102050781	402.7088623046875	952.484619140625	-334.2115783691406	379.3985900878906	1044.51953125	-426.7965698242188	101.2146911621094	1217.577270507812	-487.7932434082031	388.1650085449219	1160.383056640625	-434.5924987792969	325.6726989746094	1415.149780273438	-514.7294921875	134.9031219482422	1329.7353515625	-511.1609497070312	393.0530395507812	1273.626586914062	-567.2293701171875	343.3775939941406	1394.948974609375	-400.8446044921875	226.3075408935547	1428.92578125	-349.5916748046875	205.8467102050781	1337.665771484375	-227.8430786132812	145.8583374023438	1139.5546875	-156.2164764404297	236.5784301757812	1100.307495117188	-186.0511474609375	26.00601387023926	963.312744140625	-219.2208251953125	48.33292770385742	940.4940795898438	-152.2156219482422	97.90077972412109	1062.165405273438	-150.7739562988281	-20.74421119689941	809.031005859375	-208.5535125732422	24.25240135192871	866.976318359375	-153.6338958740234	-12.29150581359863	883.920654296875	-214.2263641357422	281.9189453125	1347.193603515625	-669.055419921875	305.0402221679688	1273.856811523438	-728.259765625	273.4092407226562	991.9303588867188	-766.4105224609375	314.7284240722656	974.168212890625	-715.4691772460938	159.185791015625	789.7952270507812	-742.710205078125	236.6416778564453	775.4696044921875	-781.5972900390625	269.91357421875	934.143798828125	-775.483642578125	158.6874389648438	635.0091552734375	-759.2124633789062	146.3114471435547	693.9049682617188	-760.775390625	219.6535339355469	690.2290649414062	-787.0958251953125	224.1304321289062	1603.601440429688	-648.9188232421875	99.47628784179688	1624.321166992188	-484.8739624023438	90.69491577148438	1610.975952148438	-614.5411376953125	251.8060150146484	1627.675537109375	-475.0591735839844	274.6812744140625	844.7399291992188	-210.7477416992188	278.3918762207031	834.5260620117188	-612.9402465820312	181.6188201904297	879.3092651367188	-546.976806640625	174.0130920410156	878.0230712890625	-291.7552185058594	313.0615844726562	421.6304931640625	-261.371826171875	270.0856018066406	569.8995361328125	-236.2122955322266	493.7574157714844	38.25758743286133	-247.4007873535156	359.6980895996094	271.0382385253906	-248.6011199951172	276.5956726074219	49.67340850830078	-350.218505859375	355.3316650390625	45.51106262207031	-369.2725219726562	342.9809265136719	49.68791961669922	-258.1994018554688	547.8377685546875	40.14475631713867	-304.3111572265625	128.3239593505859	470.4103393554688	-597.5020751953125	202.5824737548828	717.2967529296875	-626.1339111328125	180.3311004638672	38.72491073608398	-624.2684936523438	124.1431121826172	325.1344909667969	-613.168212890625	-17.81482887268066	69.89009094238281	-539.9647827148438	48.92720413208008	61.36731719970703	-514.3157958984375	47.66817092895508	47.13015747070312	-618.9512939453125	251.5047454833984	26.62637329101562	-591.4195556640625	
